<svg width="136" height="97" viewBox="0 0 136 97" fill="none" xmlns="http://www.w3.org/2000/svg">
<path d="M73.47 61.9999L59.25 40.4299H87.69L73.47 61.9999Z" fill="#161925"/>
<path d="M78.3202 26H68.6602V40.43H78.3202V26Z" fill="#161925"/>
<path d="M87.98 66.6799H59V69.96H87.98V66.6799Z" fill="#161925"/>
<path d="M135.5 64.5C135.5 64.5 129.5 89.5 89.5 89.5C89.5 89.5 35.5 90.5 13.5 89.5C13.5 89.5 41.5 97.5 91.5 96.5C91.5 96.5 131.5 97.5 135.5 64.5Z" fill="white"/>
<path d="M0.97998 32.86C0.97998 32.86 6.96997 7.86006 46.97 7.83006C46.97 7.83006 100.97 6.80002 122.97 7.79002C122.97 7.79002 94.97 -0.189942 44.97 0.830058C44.97 0.830058 4.96998 -0.139973 0.97998 32.86Z" fill="white"/>
</svg>
